<svg width="246" height="74" viewBox="0 0 246 74" fill="none" xmlns="http://www.w3.org/2000/svg">
<path d="M26.6675 48.125C25.8967 51.8958 24.3863 54.8021 22.1363 56.8438C19.8863 58.8646 17.3967 59.875 14.6675 59.875C11.4175 59.875 8.58417 58.5104 6.1675 55.7812C3.75084 53.0521 2.5425 49.3646 2.5425 44.7188C2.5425 40.2188 3.87584 36.5625 6.5425 33.75C9.23 30.9375 12.4488 29.5312 16.1988 29.5312C19.0113 29.5312 21.3238 30.2812 23.1363 31.7812C24.9488 33.2604 25.855 34.8021 25.855 36.4062C25.855 37.1979 25.5946 37.8438 25.0738 38.3438C24.5738 38.8229 23.8654 39.0625 22.9488 39.0625C21.7196 39.0625 20.7925 38.6667 20.1675 37.875C19.8133 37.4375 19.5738 36.6042 19.4488 35.375C19.3446 34.1458 18.9279 33.2083 18.1988 32.5625C17.4696 31.9375 16.4592 31.625 15.1675 31.625C13.0842 31.625 11.4071 32.3958 10.1363 33.9375C8.44875 35.9792 7.605 38.6771 7.605 42.0312C7.605 45.4479 8.43834 48.4688 10.105 51.0938C11.7925 53.6979 14.0633 55 16.9175 55C18.9592 55 20.7925 54.3021 22.4175 52.9062C23.5633 51.9479 24.6779 50.2083 25.7613 47.6875L26.6675 48.125ZM43.5125 29.5312C47.8458 29.5312 51.325 31.1771 53.95 34.4688C56.1792 37.2812 57.2938 40.5104 57.2938 44.1562C57.2938 46.7188 56.6792 49.3125 55.45 51.9375C54.2208 54.5625 52.5229 56.5417 50.3563 57.875C48.2104 59.2083 45.8146 59.875 43.1688 59.875C38.8563 59.875 35.4292 58.1562 32.8875 54.7188C30.7417 51.8229 29.6688 48.5729 29.6688 44.9688C29.6688 42.3438 30.3146 39.7396 31.6063 37.1562C32.9188 34.5521 34.6375 32.6354 36.7625 31.4062C38.8875 30.1562 41.1375 29.5312 43.5125 29.5312ZM42.5438 31.5625C41.4396 31.5625 40.325 31.8958 39.2 32.5625C38.0958 33.2083 37.2 34.3542 36.5125 36C35.825 37.6458 35.4813 39.7604 35.4813 42.3438C35.4813 46.5104 36.3042 50.1042 37.95 53.125C39.6167 56.1458 41.8042 57.6562 44.5125 57.6562C46.5333 57.6562 48.2 56.8229 49.5125 55.1562C50.825 53.4896 51.4813 50.625 51.4813 46.5625C51.4813 41.4792 50.3875 37.4792 48.2 34.5625C46.7208 32.5625 44.8354 31.5625 42.5438 31.5625ZM68.7325 35.625C70.8158 33.5417 72.045 32.3438 72.42 32.0312C73.3575 31.2396 74.3679 30.625 75.4513 30.1875C76.5346 29.75 77.6075 29.5312 78.67 29.5312C80.4617 29.5312 82.0033 30.0521 83.295 31.0938C84.5867 32.1354 85.4513 33.6458 85.8888 35.625C88.0346 33.125 89.8471 31.4896 91.3263 30.7188C92.8054 29.9271 94.3263 29.5312 95.8888 29.5312C97.4096 29.5312 98.7533 29.9271 99.92 30.7188C101.108 31.4896 102.045 32.7604 102.733 34.5312C103.191 35.7396 103.42 37.6354 103.42 40.2188V52.5312C103.42 54.3229 103.555 55.5521 103.826 56.2188C104.035 56.6771 104.42 57.0729 104.983 57.4062C105.545 57.7188 106.462 57.875 107.733 57.875V59H93.6075V57.875H94.2013C95.4304 57.875 96.3888 57.6354 97.0763 57.1562C97.5554 56.8229 97.8992 56.2917 98.1075 55.5625C98.1908 55.2083 98.2325 54.1979 98.2325 52.5312V40.2188C98.2325 37.8854 97.9513 36.2396 97.3888 35.2812C96.5763 33.9479 95.2742 33.2812 93.4825 33.2812C92.3783 33.2812 91.2638 33.5625 90.1388 34.125C89.0346 34.6667 87.6908 35.6875 86.1075 37.1875L86.045 37.5312L86.1075 38.875V52.5312C86.1075 54.4896 86.2117 55.7083 86.42 56.1875C86.6492 56.6667 87.0658 57.0729 87.67 57.4062C88.2742 57.7188 89.3054 57.875 90.7638 57.875V59H76.295V57.875C77.8783 57.875 78.9617 57.6875 79.545 57.3125C80.1492 56.9375 80.5658 56.375 80.795 55.625C80.8992 55.2708 80.9513 54.2396 80.9513 52.5312V40.2188C80.9513 37.8854 80.6075 36.2083 79.92 35.1875C79.0033 33.8542 77.7221 33.1875 76.0763 33.1875C74.9513 33.1875 73.8367 33.4896 72.7325 34.0938C71.0033 35.0104 69.67 36.0417 68.7325 37.1875V52.5312C68.7325 54.4062 68.8575 55.625 69.1075 56.1875C69.3783 56.75 69.7638 57.1771 70.2638 57.4688C70.7846 57.7396 71.8263 57.875 73.3888 57.875V59H59.2325V57.875C60.545 57.875 61.4617 57.7396 61.9825 57.4688C62.5033 57.1771 62.8992 56.7292 63.17 56.125C63.4408 55.5 63.5763 54.3021 63.5763 52.5312V41.5938C63.5763 38.4479 63.4825 36.4167 63.295 35.5C63.1492 34.8125 62.92 34.3438 62.6075 34.0938C62.295 33.8229 61.8679 33.6875 61.3263 33.6875C60.7429 33.6875 60.045 33.8438 59.2325 34.1562L58.7638 33.0312L67.3888 29.5312H68.7325V35.625ZM117.265 35.625C119.348 33.5417 120.578 32.3438 120.953 32.0312C121.89 31.2396 122.9 30.625 123.984 30.1875C125.067 29.75 126.14 29.5312 127.203 29.5312C128.994 29.5312 130.536 30.0521 131.828 31.0938C133.119 32.1354 133.984 33.6458 134.421 35.625C136.567 33.125 138.38 31.4896 139.859 30.7188C141.338 29.9271 142.859 29.5312 144.421 29.5312C145.942 29.5312 147.286 29.9271 148.453 30.7188C149.64 31.4896 150.578 32.7604 151.265 34.5312C151.723 35.7396 151.953 37.6354 151.953 40.2188V52.5312C151.953 54.3229 152.088 55.5521 152.359 56.2188C152.567 56.6771 152.953 57.0729 153.515 57.4062C154.078 57.7188 154.994 57.875 156.265 57.875V59H142.14V57.875H142.734C143.963 57.875 144.921 57.6354 145.609 57.1562C146.088 56.8229 146.432 56.2917 146.64 55.5625C146.723 55.2083 146.765 54.1979 146.765 52.5312V40.2188C146.765 37.8854 146.484 36.2396 145.921 35.2812C145.109 33.9479 143.807 33.2812 142.015 33.2812C140.911 33.2812 139.796 33.5625 138.671 34.125C137.567 34.6667 136.223 35.6875 134.64 37.1875L134.578 37.5312L134.64 38.875V52.5312C134.64 54.4896 134.744 55.7083 134.953 56.1875C135.182 56.6667 135.598 57.0729 136.203 57.4062C136.807 57.7188 137.838 57.875 139.296 57.875V59H124.828V57.875C126.411 57.875 127.494 57.6875 128.078 57.3125C128.682 56.9375 129.098 56.375 129.328 55.625C129.432 55.2708 129.484 54.2396 129.484 52.5312V40.2188C129.484 37.8854 129.14 36.2083 128.453 35.1875C127.536 33.8542 126.255 33.1875 124.609 33.1875C123.484 33.1875 122.369 33.4896 121.265 34.0938C119.536 35.0104 118.203 36.0417 117.265 37.1875V52.5312C117.265 54.4062 117.39 55.625 117.64 56.1875C117.911 56.75 118.296 57.1771 118.796 57.4688C119.317 57.7396 120.359 57.875 121.921 57.875V59H107.765V57.875C109.078 57.875 109.994 57.7396 110.515 57.4688C111.036 57.1771 111.432 56.7292 111.703 56.125C111.973 55.5 112.109 54.3021 112.109 52.5312V41.5938C112.109 38.4479 112.015 36.4167 111.828 35.5C111.682 34.8125 111.453 34.3438 111.14 34.0938C110.828 33.8229 110.4 33.6875 109.859 33.6875C109.275 33.6875 108.578 33.8438 107.765 34.1562L107.296 33.0312L115.921 29.5312H117.265V35.625ZM180.393 29.5312V35.9688C182.788 31.6771 185.247 29.5312 187.768 29.5312C188.913 29.5312 189.861 29.8854 190.611 30.5938C191.361 31.2812 191.736 32.0833 191.736 33C191.736 33.8125 191.465 34.5 190.924 35.0625C190.382 35.625 189.736 35.9062 188.986 35.9062C188.257 35.9062 187.434 35.5521 186.518 34.8438C185.622 34.1146 184.955 33.75 184.518 33.75C184.143 33.75 183.736 33.9583 183.299 34.375C182.361 35.2292 181.393 36.6354 180.393 38.5938V52.3125C180.393 53.8958 180.59 55.0938 180.986 55.9062C181.257 56.4688 181.736 56.9375 182.424 57.3125C183.111 57.6875 184.101 57.875 185.393 57.875V59H170.736V57.875C172.195 57.875 173.278 57.6458 173.986 57.1875C174.507 56.8542 174.872 56.3229 175.08 55.5938C175.184 55.2396 175.236 54.2292 175.236 52.5625V41.4688C175.236 38.1354 175.163 36.1562 175.018 35.5312C174.893 34.8854 174.643 34.4167 174.268 34.125C173.913 33.8333 173.465 33.6875 172.924 33.6875C172.278 33.6875 171.549 33.8438 170.736 34.1562L170.424 33.0312L179.08 29.5312H180.393ZM216.363 48.125C215.592 51.8958 214.081 54.8021 211.831 56.8438C209.581 58.8646 207.092 59.875 204.363 59.875C201.113 59.875 198.279 58.5104 195.863 55.7812C193.446 53.0521 192.238 49.3646 192.238 44.7188C192.238 40.2188 193.571 36.5625 196.238 33.75C198.925 30.9375 202.144 29.5312 205.894 29.5312C208.706 29.5312 211.019 30.2812 212.831 31.7812C214.644 33.2604 215.55 34.8021 215.55 36.4062C215.55 37.1979 215.29 37.8438 214.769 38.3438C214.269 38.8229 213.56 39.0625 212.644 39.0625C211.415 39.0625 210.488 38.6667 209.863 37.875C209.508 37.4375 209.269 36.6042 209.144 35.375C209.04 34.1458 208.623 33.2083 207.894 32.5625C207.165 31.9375 206.154 31.625 204.863 31.625C202.779 31.625 201.102 32.3958 199.831 33.9375C198.144 35.9792 197.3 38.6771 197.3 42.0312C197.3 45.4479 198.133 48.4688 199.8 51.0938C201.488 53.6979 203.758 55 206.613 55C208.654 55 210.488 54.3021 212.113 52.9062C213.258 51.9479 214.373 50.2083 215.456 47.6875L216.363 48.125ZM224.02 41.1562C223.999 45.4062 225.03 48.7396 227.114 51.1562C229.197 53.5729 231.645 54.7812 234.457 54.7812C236.332 54.7812 237.957 54.2708 239.332 53.25C240.728 52.2083 241.895 50.4375 242.832 47.9375L243.801 48.5625C243.364 51.4167 242.093 54.0208 239.989 56.375C237.885 58.7083 235.249 59.875 232.082 59.875C228.645 59.875 225.697 58.5417 223.239 55.875C220.801 53.1875 219.582 49.5833 219.582 45.0625C219.582 40.1667 220.832 36.3542 223.332 33.625C225.853 30.875 229.01 29.5 232.801 29.5C236.01 29.5 238.645 30.5625 240.707 32.6875C242.77 34.7917 243.801 37.6146 243.801 41.1562H224.02ZM224.02 39.3438H237.27C237.166 37.5104 236.947 36.2188 236.614 35.4688C236.093 34.3021 235.312 33.3854 234.27 32.7188C233.249 32.0521 232.176 31.7188 231.051 31.7188C229.322 31.7188 227.77 32.3958 226.395 33.75C225.041 35.0833 224.249 36.9479 224.02 39.3438Z" fill="#20476E"/>
<path d="M196 32.2498C196 32.4709 196 32.5815 196 32.5815C195.833 32.858 195.666 33.1897 195.499 33.5767C195.332 33.9085 195.11 34.1296 194.831 34.2402C194.498 34.4061 194.247 34.6273 194.08 34.9037C193.969 35.1249 193.802 35.3737 193.579 35.6501C193.301 35.9819 193.023 36.3413 192.745 36.7283C192.467 37.1153 192.188 37.5024 191.91 37.8894C191.799 38.1106 191.688 38.3594 191.576 38.6358C191.521 38.857 191.437 39.0505 191.326 39.2164C191.048 39.6587 190.714 40.0458 190.324 40.3775C189.99 40.7092 189.684 41.0963 189.406 41.5386C189.128 41.8151 188.85 42.0639 188.571 42.285C188.349 42.5062 188.126 42.7827 187.904 43.1144C187.792 43.3908 187.598 43.6397 187.319 43.8608C187.041 44.082 186.791 44.3308 186.568 44.6072C186.401 44.7731 186.318 44.8561 186.318 44.8561C186.207 45.3537 185.956 45.7131 185.567 45.9342C185.233 46.1001 184.871 46.2936 184.482 46.5148C184.148 46.183 183.981 45.9895 183.981 45.9342C183.981 45.8236 184.175 45.6301 184.565 45.3537C184.676 45.2431 184.788 45.1049 184.899 44.939C185.01 44.7731 185.149 44.6349 185.316 44.5243C185.483 44.3584 185.65 44.1926 185.817 44.0267C186.04 43.8608 186.262 43.6949 186.485 43.5291C186.763 43.1973 187.069 42.8932 187.403 42.6168C187.737 42.285 188.043 41.9533 188.321 41.6215C188.599 41.2898 188.85 40.9857 189.072 40.7092C189.35 40.3775 189.629 40.0458 189.907 39.714C190.185 39.2717 190.436 38.857 190.658 38.47C190.881 38.0276 191.131 37.613 191.409 37.2259C191.632 36.9495 191.882 36.7007 192.161 36.4795C192.439 36.2583 192.717 36.0095 192.995 35.7331L192.745 35.5672C192.8 35.4566 192.828 35.2908 192.828 35.0696C192.884 34.8484 192.94 34.7378 192.995 34.7378C193.607 34.7378 193.886 34.572 193.83 34.2402C193.774 33.8532 193.802 33.5215 193.913 33.245C194.025 33.0238 194.08 32.8303 194.08 32.6644C194.136 32.6644 194.164 32.6921 194.164 32.7474C194.219 32.7474 194.275 32.7474 194.331 32.7474C194.219 32.6368 194.136 32.5539 194.08 32.4986C194.025 32.388 193.941 32.2774 193.83 32.1668C192.884 33.4938 191.938 34.7931 190.992 36.0648C190.046 37.3365 189.017 38.5529 187.904 39.714C187.904 39.714 187.848 39.6587 187.737 39.5481C187.848 39.4376 187.904 39.327 187.904 39.2164C187.959 39.1058 188.043 38.9952 188.154 38.8847C188.766 38.1106 189.35 37.3642 189.907 36.6454C190.519 35.8713 191.131 35.0972 191.743 34.3232C192.188 33.6597 192.578 33.0238 192.912 32.4156C193.023 32.1392 193.162 31.8904 193.329 31.6692C193.552 31.3928 193.746 31.1439 193.913 30.9228C194.136 30.7016 194.358 30.4805 194.581 30.2593L195.082 30.7569C195.193 30.8675 195.332 31.0057 195.499 31.1716C195.666 31.2822 195.805 31.3928 195.917 31.5033C195.917 31.6139 195.917 31.7521 195.917 31.918C195.972 32.0286 196 32.1392 196 32.2498ZM182.395 47.2612C182.617 46.9847 182.896 46.7912 183.23 46.6806C183.619 46.5148 184.064 46.5701 184.565 46.8465L183.146 48.2564C182.534 48.8646 181.95 49.4452 181.393 49.9981C180.892 50.551 180.364 51.1039 179.807 51.6568C179.696 51.7674 179.557 51.8503 179.39 51.9056C179.279 51.9056 179.167 51.9609 179.056 52.0715C178.945 52.1821 178.834 52.2927 178.722 52.4032C178.667 52.5138 178.583 52.6244 178.472 52.735L177.721 53.4814C177.721 53.4261 177.637 53.4814 177.47 53.6473C177.025 54.5319 176.413 55.2507 175.634 55.8036C174.911 56.3012 174.215 56.8818 173.547 57.5453C172.88 58.1535 172.184 58.7893 171.461 59.4528C170.737 60.061 170.014 60.6692 169.291 61.2774C169.179 61.3327 169.068 61.388 168.957 61.4433C168.901 61.4986 168.818 61.5539 168.706 61.6092C168.372 61.775 167.927 62.0238 167.371 62.3556C166.814 62.6873 166.23 63.0467 165.618 63.4337C165.062 63.8208 164.505 64.2078 163.949 64.5949C163.392 64.9266 162.975 65.1754 162.697 65.3413C162.085 65.7836 161.445 66.1153 160.777 66.3365C160.109 66.5577 159.414 66.7235 158.69 66.8341C157.967 66.9447 157.243 67 156.52 67C155.797 67 155.129 66.7512 154.517 66.2536C154.072 65.9218 153.71 65.9771 153.432 66.4194C153.265 66.8065 153.014 67 152.681 67C152.402 67 152.096 66.9724 151.762 66.9171C151.429 66.9171 151.123 66.8341 150.844 66.6683C150.622 66.5577 150.483 66.2812 150.427 65.8389C150.371 65.8389 150.316 65.8665 150.26 65.9218C150.26 65.9218 150.232 65.9218 150.177 65.9218C150.177 66.0324 150.149 66.1706 150.093 66.3365C150.093 66.4471 150.093 66.613 150.093 66.8341C149.815 66.5577 149.592 66.3089 149.425 66.0877C149.258 65.8112 149.064 65.5348 148.841 65.2583C148.841 65.203 148.813 65.1478 148.758 65.0925C148.758 65.0372 148.73 64.9819 148.674 64.9266V64.8437L148.424 64.346C148.146 63.3508 147.728 62.5767 147.172 62.0238C146.949 61.858 146.782 61.6644 146.671 61.4433C146.615 61.1668 146.532 60.8904 146.421 60.6139C146.254 60.3375 146.059 60.061 145.836 59.7846C145.669 59.5081 145.502 59.2317 145.335 58.9552C145.169 58.6787 145.029 58.4023 144.918 58.1258C144.862 57.8494 144.779 57.5453 144.668 57.2135C144.445 56.4395 144.25 55.693 144.083 54.9743C143.972 54.2002 143.972 53.4261 144.083 52.652C144.139 52.0991 144.195 51.5739 144.25 51.0763C144.362 50.5786 144.445 50.0534 144.501 49.5005C144.556 49.4452 144.584 49.3623 144.584 49.2517C144.529 48.3117 144.668 47.4547 145.002 46.6806C145.335 45.8513 145.642 45.0496 145.92 44.2755C145.975 44.1096 146.142 43.9714 146.421 43.8608C145.92 43.1973 146.087 42.7274 146.921 42.4509C147.088 42.285 147.172 42.1192 147.172 41.9533C147.005 41.3451 147.172 40.9304 147.673 40.7092C147.673 40.7092 147.728 40.4881 147.839 40.0458C148.062 39.9905 148.257 39.9075 148.424 39.797C148.646 39.6864 148.619 39.4099 148.34 38.9676C148.285 38.9123 148.34 38.7741 148.507 38.5529C148.73 38.2765 148.925 38.0829 149.091 37.9724C149.203 37.8618 149.286 37.7788 149.342 37.7235C149.453 37.6683 149.453 37.5577 149.342 37.3918L150.093 36.8942C149.982 36.7283 149.815 36.5348 149.592 36.3136C150.371 36.3136 150.622 36.0925 150.343 35.6501C150.622 35.3737 150.844 35.1249 151.011 34.9037C151.234 34.6273 151.456 34.3508 151.679 34.0744C151.79 33.8532 151.902 33.632 152.013 33.4109C152.18 33.1897 152.319 32.9409 152.43 32.6644C152.486 32.6644 152.514 32.6644 152.514 32.6644C152.569 32.6092 152.625 32.5815 152.681 32.5815C153.293 32.3051 153.654 32.1115 153.766 32.001C153.877 31.8351 153.877 31.4757 153.766 30.9228C153.877 30.8675 153.988 30.8398 154.1 30.8398C154.266 30.8398 154.406 30.8122 154.517 30.7569C154.406 30.6463 154.294 30.5357 154.183 30.4252C154.072 30.2593 153.96 30.0934 153.849 29.9276C154.684 28.877 155.602 27.7159 156.604 26.4442C156.492 26.776 156.409 26.9971 156.353 27.1077C156.409 27.1077 156.437 27.1354 156.437 27.1907C156.492 27.1907 156.548 27.1907 156.604 27.1907C156.715 27.0248 156.826 26.8589 156.937 26.693C157.049 26.5272 157.188 26.306 157.355 26.0296C157.8 25.919 157.967 25.5596 157.856 24.9514C157.8 24.6196 157.995 24.2326 158.44 23.7903C158.885 23.348 159.33 23.0715 159.775 22.9609H160.109C159.942 22.4633 159.998 22.1039 160.276 21.8827C160.61 21.6616 160.86 21.4128 161.027 21.1363C161.472 20.4728 161.973 19.8646 162.53 19.3117C163.086 18.7588 163.643 18.1783 164.199 17.5701C164.755 16.9066 165.34 16.2984 165.952 15.7455C166.62 15.1373 167.176 14.4738 167.621 13.755C168.178 12.9256 168.79 12.2069 169.457 11.5987C170.125 10.9352 170.849 10.2993 171.628 9.69114C171.739 9.58055 171.878 9.49762 172.045 9.44233C172.212 9.33175 172.379 9.22116 172.546 9.11058C172.768 9 172.935 8.97235 173.047 9.02765L175.3 10.0229C175.356 10.0229 175.411 10.0505 175.467 10.1058C175.523 10.1058 175.578 10.1058 175.634 10.1058C175.912 10.2164 176.163 10.327 176.385 10.4376C176.608 10.5481 176.803 10.7417 176.97 11.0181C177.136 11.2393 177.331 11.4328 177.554 11.5987C177.776 11.7645 177.999 11.9028 178.222 12.0133C178.834 12.4004 179.279 12.8427 179.557 13.3403C179.835 13.8379 180.113 14.3908 180.392 14.999C180.392 15.0543 180.419 15.1096 180.475 15.1649C180.586 15.4967 180.642 15.8561 180.642 16.2431C180.698 16.6301 180.809 17.0172 180.976 17.4042C181.254 18.0124 181.449 18.5929 181.56 19.1459C181.727 19.6988 181.95 20.2517 182.228 20.8046C182.506 21.4128 182.534 22.021 182.311 22.6292C182.089 23.2374 182.089 23.8456 182.311 24.4538C182.311 24.5091 182.284 24.592 182.228 24.7026C182.172 24.7579 182.117 24.8408 182.061 24.9514C182.562 25.2831 182.701 25.6149 182.478 25.9466C182.256 26.2231 182.089 26.5272 181.978 26.8589C181.922 27.1907 181.866 27.5224 181.811 27.8541C181.755 28.1306 181.671 28.4347 181.56 28.7664C181.449 29.0429 181.365 29.3194 181.31 29.5958C181.31 29.817 181.171 30.0381 180.892 30.2593C180.781 30.3699 180.726 30.5081 180.726 30.674C180.726 30.7846 180.698 30.8951 180.642 31.0057C180.364 31.5586 180.058 32.0839 179.724 32.5815C179.223 33.4662 178.694 34.2402 178.138 34.9037C177.804 35.4013 177.47 35.899 177.136 36.3966C176.803 36.8942 176.469 37.3642 176.135 37.8065C175.857 38.2488 175.551 38.6358 175.217 38.9676C174.938 39.2993 174.66 39.6864 174.382 40.1287C174.159 40.4051 173.965 40.7645 173.798 41.2069C173.686 41.4833 173.547 41.6492 173.38 41.7045C172.824 41.9809 172.379 42.368 172.045 42.8656C171.767 43.3079 171.433 43.7502 171.043 44.1926C170.765 44.469 170.431 44.7455 170.042 45.0219C169.652 45.2984 169.291 45.5748 168.957 45.8513C168.678 46.0724 168.4 46.2936 168.122 46.5148C167.899 46.7359 167.649 46.9571 167.371 47.1783C167.037 47.4547 166.675 47.7035 166.286 47.9247C165.952 48.1459 165.59 48.3947 165.201 48.6711C165.089 48.6711 165.006 48.6988 164.95 48.7541C164.171 49.3622 163.337 49.8046 162.446 50.081C161.556 50.3022 160.666 50.551 159.775 50.8275C159.441 50.938 159.191 50.9933 159.024 50.9933H158.941C158.217 51.1592 157.243 51.2698 156.019 51.3251C154.795 51.3804 153.821 51.3251 153.098 51.1592L153.014 51.0763L152.514 51.3251C152.625 51.878 152.375 52.3203 151.762 52.652C151.651 52.7073 151.568 52.7903 151.512 52.9009C151.512 53.0114 151.484 53.122 151.429 53.2326C151.317 53.3432 151.234 53.4538 151.178 53.5643C151.178 53.6196 151.123 53.7026 151.011 53.8132C150.733 54.0896 150.677 54.2831 150.844 54.3937C151.067 54.449 151.234 54.5319 151.345 54.6425C151.234 54.919 151.15 55.1954 151.095 55.4719C151.039 55.7483 150.983 56.0248 150.928 56.3012C150.816 56.5224 150.705 56.6606 150.594 56.7159C150.093 57.2135 150.037 57.7941 150.427 58.4576C150.594 58.734 150.566 59.0381 150.343 59.3699C150.121 59.7569 150.177 60.0887 150.51 60.3651C150.677 60.4204 150.816 60.6416 150.928 61.0286L151.178 61.5262C151.234 61.8027 151.262 62.1068 151.262 62.4385C151.317 62.715 151.429 62.9914 151.596 63.2679C151.929 63.7655 152.402 64.0696 153.014 64.1802C154.127 64.346 155.379 64.2631 156.77 63.9314C158.162 63.5443 159.33 63.0467 160.276 62.4385C160.777 62.1068 161.389 61.7197 162.112 61.2774C162.836 60.7798 163.587 60.2822 164.366 59.7846C165.145 59.2316 165.868 58.7064 166.536 58.2088C167.259 57.6559 167.872 57.2135 168.372 56.8818C169.597 55.9418 170.793 54.9743 171.961 53.979C173.13 52.9838 174.299 51.9886 175.467 50.9933C176.469 50.1087 177.442 49.224 178.388 48.3394C179.334 47.4547 180.28 46.5424 181.226 45.6025C182.061 44.8837 182.868 44.1649 183.647 43.4461C184.482 42.7274 185.288 41.9809 186.067 41.2069C186.29 41.041 186.485 40.8475 186.652 40.6263C186.819 40.4051 186.986 40.184 187.152 39.9628C187.208 40.0181 187.264 40.0734 187.319 40.1287C187.375 40.1287 187.431 40.184 187.486 40.2946C186.151 41.7321 184.788 43.142 183.396 44.5243C182.061 45.9066 180.753 47.2888 179.474 48.6711C179.362 48.837 179.251 49.0029 179.14 49.1687C179.084 49.2793 179.001 49.3899 178.889 49.5005C178.555 49.8875 178.194 50.2745 177.804 50.6616C177.47 50.9933 177.136 51.3251 176.803 51.6568C176.747 51.7121 176.691 51.7674 176.636 51.8227C176.58 51.8227 176.524 51.8503 176.469 51.9056C176.357 51.9609 176.274 52.0162 176.218 52.0715C176.218 52.1268 176.163 52.2097 176.051 52.3203C176.163 52.3203 176.274 52.348 176.385 52.4032C176.552 52.4585 176.691 52.4585 176.803 52.4032C176.97 52.2927 177.109 52.1821 177.22 52.0715C177.387 51.9056 177.554 51.7674 177.721 51.6568C178.555 50.9933 179.362 50.3022 180.141 49.5834C180.92 48.8646 181.671 48.0906 182.395 47.2612ZM151.512 40.4604C151.679 40.184 151.929 39.9628 152.263 39.797C152.597 39.6311 152.681 39.2993 152.514 38.8017C152.235 38.8017 152.068 38.8294 152.013 38.8847C151.79 39.1058 151.596 39.327 151.429 39.5481C151.317 39.7693 151.178 39.9905 151.011 40.2116C150.844 40.3775 150.872 40.4604 151.095 40.4604C151.206 40.6263 151.345 40.6263 151.512 40.4604ZM152.43 42.9485C152.764 42.5062 153.07 42.1192 153.348 41.7874C153.627 41.4004 153.933 40.9857 154.266 40.5434C153.766 40.5987 153.32 40.8751 152.931 41.3727C152.541 41.8151 152.375 42.3403 152.43 42.9485ZM166.787 44.1096C166.898 43.999 166.953 43.8332 166.953 43.612C167.009 43.3356 167.065 43.0868 167.12 42.8656C166.675 42.8656 166.369 43.0867 166.202 43.5291C166.091 43.6949 165.952 43.8608 165.785 44.0267C165.618 44.1926 165.479 44.3584 165.368 44.5243L164.366 45.2707L164.616 45.5195C165.006 45.2984 165.368 45.0772 165.701 44.8561C166.091 44.6349 166.453 44.3861 166.787 44.1096ZM167.955 42.6997C168.066 42.6997 168.178 42.5891 168.289 42.368C168.345 42.3127 168.345 42.2574 168.289 42.2021C168.233 42.1468 168.178 42.1192 168.122 42.1192C167.899 42.0086 167.705 42.0362 167.538 42.2021C167.426 42.3127 167.343 42.4233 167.287 42.5338C167.287 42.5891 167.232 42.6721 167.12 42.7826C167.51 42.7826 167.788 42.755 167.955 42.6997ZM162.363 35.4843C161.973 35.9819 161.612 36.5072 161.278 37.0601C160.944 37.5577 160.582 38.0553 160.193 38.5529C160.137 38.6082 160.054 38.6635 159.942 38.7188C159.831 38.7741 159.747 38.7741 159.692 38.7188C159.414 38.6635 159.247 38.7188 159.191 38.8847C159.135 38.9952 159.08 39.1611 159.024 39.3823C159.024 39.5481 158.968 39.797 158.857 40.1287C158.746 40.3499 158.635 40.571 158.523 40.7922C158.412 40.9581 158.301 41.1516 158.189 41.3727L157.772 41.7874C157.661 41.9533 157.522 42.1192 157.355 42.285C157.188 42.4509 157.049 42.6444 156.937 42.8656C156.659 43.4185 156.409 43.9714 156.186 44.5243C156.019 45.0772 155.685 45.5748 155.185 46.0172C155.073 46.1277 155.018 46.183 155.018 46.183L153.933 47.7588C154.378 47.7588 154.851 47.8141 155.352 47.9247C155.852 48.0353 156.325 48.0076 156.77 47.8418C157.049 47.7312 157.299 47.6482 157.522 47.5929C157.744 47.5377 157.995 47.4547 158.273 47.3441C158.607 47.2888 158.857 47.2612 159.024 47.2612C159.191 47.2059 159.386 47.123 159.608 47.0124C159.775 46.9018 159.942 46.8189 160.109 46.7636C160.332 46.7083 160.554 46.6254 160.777 46.5148C160.888 46.5148 160.999 46.4595 161.111 46.3489L163.615 44.6072C163.893 44.4414 164.171 44.3031 164.449 44.1926C164.728 44.0267 165.006 43.8332 165.284 43.612C166.063 43.0591 166.759 42.4786 167.371 41.8704C168.039 41.2069 168.623 40.4881 169.124 39.714L169.457 39.3823C169.847 38.9399 170.209 38.4976 170.543 38.0553C170.932 37.613 171.294 37.1706 171.628 36.7283C172.073 36.1754 172.518 35.6225 172.963 35.0696C173.408 34.5167 173.853 33.9638 174.299 33.4109C174.41 33.3003 174.465 33.1621 174.465 32.9962C174.521 32.8856 174.549 32.7474 174.549 32.5815C174.605 32.4156 174.688 32.2774 174.799 32.1668C175.634 30.8398 176.357 29.4852 176.97 28.103C177.582 26.7207 177.999 25.2278 178.222 23.6244C178.333 23.0715 178.361 22.5186 178.305 21.9657C178.305 21.4128 178.305 20.8599 178.305 20.307C178.305 20.1964 178.249 20.0581 178.138 19.8923C178.082 19.7264 177.999 19.6435 177.888 19.6435C177.609 19.6435 177.359 19.7541 177.136 19.9752C177.025 20.0858 176.803 20.307 176.469 20.6387C176.135 20.9704 175.912 21.164 175.801 21.2193C175.578 21.4404 175.356 21.6339 175.133 21.7998C174.966 21.9657 174.772 22.1316 174.549 22.2974C174.215 22.5186 173.909 22.7674 173.631 23.0439C173.353 23.3203 173.019 23.5691 172.629 23.7903C172.184 24.0667 171.795 24.4261 171.461 24.8684C171.127 25.3108 170.765 25.7255 170.376 26.1125C170.209 26.2784 170.014 26.4442 169.791 26.6101C169.569 26.7207 169.346 26.8313 169.124 26.9418C168.901 27.163 168.762 27.3289 168.706 27.4395C168.428 27.8265 168.178 28.2135 167.955 28.6006C167.788 28.9876 167.566 29.3746 167.287 29.7617C167.009 30.1487 166.675 30.5357 166.286 30.9228C165.952 31.2545 165.618 31.5863 165.284 31.918C164.839 32.4156 164.422 32.9409 164.032 33.4938C163.643 34.0467 163.086 34.4337 162.363 34.6549C162.363 34.8208 162.363 34.9867 162.363 35.1525C162.418 35.2631 162.418 35.3737 162.363 35.4843ZM160.36 25.449C160.248 25.5596 160.109 25.6978 159.942 25.8637C159.831 26.0296 159.72 26.1678 159.608 26.2784C159.608 26.3889 159.636 26.4719 159.692 26.5272C159.803 26.4719 159.914 26.4442 160.026 26.4442C160.137 26.4442 160.22 26.3889 160.276 26.2784C160.387 26.1678 160.443 26.0572 160.443 25.9466C160.443 25.7807 160.471 25.6425 160.526 25.5319C160.471 25.4766 160.415 25.449 160.36 25.449ZM158.857 26.693C158.746 26.7483 158.607 26.8589 158.44 27.0248C158.329 27.1354 158.217 27.2459 158.106 27.3565C158.273 27.5224 158.523 27.7159 158.857 27.9371C158.857 28.0477 158.913 28.103 159.024 28.103C159.135 27.9371 159.219 27.7989 159.274 27.6883C159.386 27.5224 159.497 27.3289 159.608 27.1077C159.553 27.0524 159.469 26.9971 159.358 26.9418C159.247 26.8866 159.135 26.8313 159.024 26.776C158.968 26.7207 158.913 26.693 158.857 26.693ZM158.189 27.9371C157.633 27.8818 157.188 28.1859 156.854 28.8494C157.077 28.96 157.355 29.1258 157.689 29.347C157.633 29.2364 157.577 29.1258 157.522 29.0153C157.522 28.9047 157.494 28.7664 157.438 28.6006C157.549 28.6006 157.661 28.6282 157.772 28.6835C157.883 28.6835 157.995 28.6559 158.106 28.6006C158.217 28.6006 158.384 28.49 158.607 28.2688C158.495 28.2135 158.412 28.1582 158.356 28.103C158.356 27.9924 158.301 27.9371 158.189 27.9371ZM147.255 46.3489C147.255 46.2936 147.255 46.266 147.255 46.266C147.311 46.266 147.339 46.2383 147.339 46.183C147.227 45.8513 147.116 45.5748 147.005 45.3537C146.949 45.2984 146.866 45.2707 146.754 45.2707C146.754 45.3813 146.727 45.4919 146.671 45.6025C146.615 45.7131 146.615 45.8236 146.671 45.9342C146.671 45.9895 146.866 46.1277 147.255 46.3489ZM146.921 44.939C147.144 44.8284 147.339 44.7178 147.506 44.6072C147.728 44.4967 147.979 44.3584 148.257 44.1926C147.812 43.7502 147.867 43.3079 148.424 42.8656C148.479 42.8103 148.479 42.7274 148.424 42.6168C148.424 42.5062 148.452 42.3956 148.507 42.285C148.452 42.285 148.396 42.285 148.34 42.285C148.34 42.2297 148.312 42.2021 148.257 42.2021C147.979 42.6444 147.728 43.0867 147.506 43.5291C147.283 43.9161 147.033 44.3308 146.754 44.7731C146.866 44.8837 146.921 44.939 146.921 44.939ZM148.257 52.2374C148.424 52.1268 148.507 51.9333 148.507 51.6568C148.563 51.3251 148.535 51.0486 148.424 50.8275C148.312 51.0486 148.229 51.2421 148.173 51.408C148.118 51.5739 148.034 51.7674 147.923 51.9886C147.923 52.0439 147.923 52.0991 147.923 52.1544C147.979 52.2097 148.006 52.265 148.006 52.3203C148.173 52.3203 148.257 52.2927 148.257 52.2374ZM148.257 41.6215C148.368 41.7321 148.507 41.8427 148.674 41.9533C148.841 42.0086 149.008 42.0915 149.175 42.2021C149.286 42.0362 149.37 41.8704 149.425 41.7045C149.537 41.5386 149.62 41.3451 149.676 41.1239C149.731 41.0133 149.731 40.8751 149.676 40.7092C149.676 40.4881 149.676 40.2946 149.676 40.1287C149.787 40.184 149.843 40.2393 149.843 40.2946C149.898 40.2946 149.982 40.3222 150.093 40.3775C150.371 40.101 150.594 39.8522 150.761 39.6311C150.983 39.3546 151.206 39.0782 151.429 38.8017C151.484 38.6911 151.512 38.6358 151.512 38.6358C151.568 38.5806 151.623 38.4976 151.679 38.387C151.679 38.3317 151.623 38.2765 151.512 38.2212C151.456 38.1659 151.401 38.1659 151.345 38.2212C151.234 38.2212 151.095 38.3041 150.928 38.47C150.872 38.5806 150.816 38.6911 150.761 38.8017C150.761 38.857 150.733 38.9399 150.677 39.0505C150.622 39.0505 150.538 38.9952 150.427 38.8847C150.538 38.6635 150.65 38.4423 150.761 38.2212C150.928 38 151.123 37.8341 151.345 37.7235C151.846 37.5024 152.124 37.3365 152.18 37.2259C152.291 37.1153 152.208 36.8113 151.929 36.3136L152.43 36.0648C152.653 35.9542 152.875 35.8437 153.098 35.7331C153.376 35.6225 153.543 35.5119 153.599 35.4013C153.654 34.8484 153.849 34.489 154.183 34.3232C154.517 34.102 154.823 33.8532 155.101 33.5767C154.99 33.0238 154.906 32.6644 154.851 32.4986C155.24 32.2774 155.574 32.0286 155.852 31.7521C156.075 31.5863 156.27 31.3928 156.437 31.1716C156.604 30.9504 156.77 30.7293 156.937 30.5081C157.327 30.0658 157.216 29.7064 156.604 29.4299C154.823 31.1992 153.293 33.1344 152.013 35.2355C150.733 37.3365 149.481 39.4652 148.257 41.6215ZM149.091 49.8322C149.37 49.3346 149.592 48.837 149.759 48.3394C149.982 47.8418 150.232 47.3441 150.51 46.8465C150.399 46.8465 150.343 46.7912 150.343 46.6806C150.121 46.7912 150.01 46.9018 150.01 47.0124C149.898 47.3441 149.731 47.6759 149.509 48.0076C149.342 48.2841 149.175 48.5882 149.008 48.9199C148.897 49.0858 148.841 49.3899 148.841 49.8322H149.091Z" fill="#F3C416" fill-opacity="0.8"/>
</svg>
